HIERARCHY
ROOT Hips
{
	OFFSET -0.001795 -0.223333 0.028219
	CHANNELS 6 Xposition Yposition Zposition Zrotation Yrotation Xrotation 
	JOINT LeftUpLeg
	{
		OFFSET 0.069520 -0.091406 -0.006815
		CHANNELS 3 Zrotation Yrotation Xrotation
		JOINT LeftLeg
		{
			OFFSET 0.034277 -0.375199 -0.004496
			CHANNELS 3 Zrotation Yrotation Xrotation
			JOINT LeftFoot
			{
				OFFSET -0.013596 -0.397961 -0.043693
				CHANNELS 3 Zrotation Yrotation Xrotation
				JOINT LeftToe
				{
					OFFSET 0.026358 -0.055791 0.119288
					CHANNELS 3 Zrotation Yrotation Xrotation
					End Site
					{
						OFFSET 0.000000 0.000000 0.000000
					}
				}
			}
		}
	}
	JOINT RightUpLeg
	{
		OFFSET -0.067670 -0.090522 -0.004320
		CHANNELS 3 Zrotation Yrotation Xrotation
		JOINT RightLeg
		{
			OFFSET -0.038290 -0.382569 -0.008850
			CHANNELS 3 Zrotation Yrotation Xrotation
			JOINT RightFoot
			{
				OFFSET 0.015774 -0.398415 -0.042312
				CHANNELS 3 Zrotation Yrotation Xrotation
				JOINT RightToe
				{
					OFFSET -0.025372 -0.048144 0.123348
					CHANNELS 3 Zrotation Yrotation Xrotation
					End Site
					{
						OFFSET 0.000000 0.000000 0.000000
					}
				}
			}
		}
	}
	JOINT Spine
	{
		OFFSET -0.002533 0.108963 -0.026696
		CHANNELS 3 Zrotation Yrotation Xrotation
		JOINT Spine1
		{
			OFFSET 0.005487 0.135180 0.001092
			CHANNELS 3 Zrotation Yrotation Xrotation
			JOINT Spine2
			{
				OFFSET 0.001457 0.052922 0.025425
				CHANNELS 3 Zrotation Yrotation Xrotation
				JOINT Neck
				{
					OFFSET -0.002778 0.213870 -0.042857
					CHANNELS 3 Zrotation Yrotation Xrotation
					JOINT Head
					{
						OFFSET 0.005152 0.064970 0.051349
						CHANNELS 3 Zrotation Yrotation Xrotation
						End Site
						{
							OFFSET 0.000000 0.000000 0.000000
						}
					}
				}
				JOINT LeftShoulder
				{
					OFFSET 0.078845 0.121749 -0.034090
					CHANNELS 3 Zrotation Yrotation Xrotation
					JOINT LeftArm
					{
						OFFSET 0.090977 0.030469 -0.008868
						CHANNELS 3 Zrotation Yrotation Xrotation
						JOINT LeftForeArm
						{
							OFFSET 0.259612 -0.012772 -0.027456
							CHANNELS 3 Zrotation Yrotation Xrotation
							JOINT LeftHand
							{
								OFFSET 0.249234 0.008986 -0.001171
								CHANNELS 3 Zrotation Yrotation Xrotation
								End Site
								{
									OFFSET 0.000000 0.000000 0.000000
								}
							}
						}
					}
				}
				JOINT RightShoulder
				{
					OFFSET -0.081759 0.118833 -0.038615
					CHANNELS 3 Zrotation Yrotation Xrotation
					JOINT RightArm
					{
						OFFSET -0.096012 0.032551 -0.009143
						CHANNELS 3 Zrotation Yrotation Xrotation
						JOINT RightForeArm
						{
							OFFSET -0.253742 -0.013329 -0.021401
							CHANNELS 3 Zrotation Yrotation Xrotation
							JOINT RightHand
							{
								OFFSET -0.255298 0.007772 -0.005559
								CHANNELS 3 Zrotation Yrotation Xrotation
								End Site
								{
									OFFSET 0.000000 0.000000 0.000000
								}
							}
						}
					}
				}
			}
		}
	}
}
MOTION
Frames: 12
Frame Time: 0.050000
0.000000 0.928269 0.000000 -0.482486 -8.124179 -1.078659 0.286334 -1.246465 -15.466384 -2.398571 0.285440 3.566218 3.885587 10.282295 14.052003 0.000000 0.000000 0.000000 1.585670 -1.196888 11.823563 -0.202268 0.693530 12.519256 -0.028265 1.489290 -2.336731 0.000000 0.000000 0.000000 0.354830 -0.264052 6.594895 -3.597774 1.876295 3.231611 0.010670 7.003467 6.758056 5.663041 -1.088387 -23.030271 0.000000 0.000000 0.000000 -30.256811 -13.761226 4.949478 -41.406644 -8.480937 -1.906368 -1.051388 -24.924753 1.082425 0.000000 0.000000 0.000000 28.117936 11.194987 5.812679 48.525759 15.701227 0.879132 -0.532604 30.122401 1.093627 0.000000 0.000000 0.000000 
0.004351 0.928480 0.035895 -1.294913 -6.584850 -1.232757 0.181538 -1.169712 -13.864282 -1.933259 0.186453 5.049752 3.769696 10.038635 12.154244 0.000000 0.000000 0.000000 0.951412 -0.930250 9.334539 2.165612 0.595435 21.523162 0.334910 2.020787 -1.791443 0.000000 0.000000 0.000000 -0.032865 -0.254636 6.853399 -2.989451 1.523974 2.748382 -0.145748 5.839066 7.991013 5.766429 -1.120324 -23.766200 0.000000 0.000000 0.000000 -30.129061 -12.363062 4.221494 -40.653168 -10.371114 -1.434630 -1.238552 -23.819987 1.093691 0.000000 0.000000 0.000000 26.553875 10.207078 4.976719 51.628598 15.549177 0.948176 -0.313891 29.482152 1.134925 0.000000 0.000000 0.000000 
0.007856 0.933106 0.068851 -1.115784 -6.876270 -1.722420 -0.729918 -1.136691 -12.135487 -2.162110 0.222237 6.910311 4.576835 10.999404 9.466888 0.000000 0.000000 0.000000 -1.519286 -0.295855 4.448728 5.118664 0.114592 31.936776 0.103293 -0.880104 1.938083 0.000000 0.000000 0.000000 -1.768149 -0.164625 8.389662 -2.699593 1.321169 0.706422 -0.084580 6.143983 9.769998 4.579761 -0.620665 -22.757212 0.000000 0.000000 0.000000 -28.647423 -14.100849 5.423675 -40.743534 -11.935990 -1.096055 -0.979894 -24.039106 1.058755 0.000000 0.000000 0.000000 24.528054 10.897301 5.376697 53.093258 14.430684 0.391808 0.862018 30.697427 1.524224 0.000000 0.000000 0.000000 
0.010276 0.935835 0.098071 -1.715069 -6.706313 -1.734570 -0.181718 -0.817456 -9.003442 -2.694694 0.318285 4.930971 4.657436 11.103648 8.867896 0.000000 0.000000 0.000000 -1.971955 0.114523 -0.654978 7.063497 -0.488920 39.033990 -2.033706 -6.319791 2.856011 0.000000 0.000000 0.000000 -1.827603 -0.166722 8.701439 -2.562489 1.292928 2.332643 -0.346446 4.314917 8.588900 4.701131 -0.833929 -23.124277 0.000000 0.000000 0.000000 -28.677029 -14.346208 6.220643 -39.293423 -13.161510 -0.820057 -0.938071 -24.346693 1.107360 0.000000 0.000000 0.000000 23.929117 12.080305 5.435488 54.011105 13.434869 0.265409 0.542795 30.824389 1.323418 0.000000 0.000000 0.000000 
0.011464 0.939096 0.124738 -2.336109 -6.316769 -2.051656 0.063513 -0.556561 -6.166534 -2.607579 0.302471 3.614159 4.964508 11.613969 8.259963 0.000000 0.000000 0.000000 -2.055824 0.463960 -4.991178 8.485521 -1.182124 42.366351 -3.994902 -10.640775 2.383276 0.000000 0.000000 0.000000 -2.354764 -0.142272 9.900852 -1.989132 0.996504 2.287214 -0.692118 2.982700 9.085891 4.444808 -0.829330 -23.252177 0.000000 0.000000 0.000000 -29.509449 -15.862444 7.771889 -36.833689 -14.771380 -0.532451 0.147968 -24.569518 0.911721 0.000000 0.000000 0.000000 23.892618 12.882005 5.554912 53.718816 13.168541 0.184695 -0.031535 31.531879 1.142169 0.000000 0.000000 0.000000 
0.012126 0.941729 0.150210 -3.206083 -6.191462 -2.464311 1.013001 -0.292714 -3.595711 -2.745139 0.324176 3.067359 4.722141 10.980666 6.416876 0.000000 0.000000 0.000000 -1.894515 0.837410 -9.216805 9.354505 -1.651159 41.738520 -5.529393 -14.192790 2.757624 0.000000 0.000000 0.000000 -2.047612 -0.193822 11.351129 -1.880299 0.934606 1.944099 -0.915984 1.171884 9.227289 4.418648 -1.040781 -23.219618 0.000000 0.000000 0.000000 -29.429507 -16.667463 9.040561 -34.946610 -16.476548 -0.320618 0.359178 -24.906441 0.912903 0.000000 0.000000 0.000000 24.846821 13.879352 5.581000 53.277857 12.284764 -0.060853 -0.827196 32.365445 0.837397 0.000000 0.000000 0.000000 
0.012117 0.943343 0.174611 -3.748198 -6.209249 -2.346237 1.654600 -0.108548 -1.525564 -2.618058 0.308018 2.353845 4.595169 10.558367 4.961698 0.000000 0.000000 0.000000 -1.988073 1.216245 -13.313487 9.425653 -1.685198 38.792859 -5.839002 -15.029511 3.423071 0.000000 0.000000 0.000000 -2.139184 -0.191530 11.985903 -1.520309 0.756398 2.362871 -1.254876 0.478234 8.717873 4.816315 -1.399496 -22.500109 0.000000 0.000000 0.000000 -29.170703 -17.467168 9.788284 -33.796281 -18.084063 0.029965 1.628868 -24.152672 0.623221 0.000000 0.000000 0.000000 24.871522 13.451141 5.075173 53.866557 11.605342 -0.246889 -1.245596 32.117844 0.666068 0.000000 0.000000 0.000000 
0.011206 0.943537 0.198461 -4.178484 -7.321354 -2.311232 1.659883 0.063923 0.578641 -2.295044 0.273116 1.705069 5.317512 11.761517 3.653988 0.000000 0.000000 0.000000 -1.338495 1.638975 -16.619688 8.182575 -1.001984 33.770350 -6.532117 -16.706423 4.351640 0.000000 0.000000 0.000000 -2.256914 -0.168128 12.823006 -0.882109 0.436145 2.137761 -1.606876 0.076214 8.704337 4.599565 -1.432536 -22.124439 0.000000 0.000000 0.000000 -28.441221 -18.296733 10.615461 -32.934254 -19.383840 0.225687 1.746451 -24.276127 0.612545 0.000000 0.000000 0.000000 24.981170 13.342901 4.672312 53.703191 10.945752 -0.449102 -1.499033 32.924695 0.538703 0.000000 0.000000 0.000000 
0.008732 0.942354 0.223172 -4.516088 -7.560036 -2.086109 1.806720 0.207480 2.323531 -1.886735 0.217977 1.540812 5.176195 11.278246 1.685318 0.000000 0.000000 0.000000 -1.247314 2.008096 -19.716128 6.961831 -0.637579 26.864848 -6.316344 -16.712112 6.901188 0.000000 0.000000 0.000000 -2.057651 -0.188853 13.069127 -0.382397 0.185326 2.384715 -2.129530 -0.676923 8.399915 5.078015 -1.805380 -21.917048 0.000000 0.000000 0.000000 -28.645069 -18.490110 11.077825 -31.427158 -20.469370 0.345910 1.506837 -24.317356 0.667504 0.000000 0.000000 0.000000 25.899618 12.721050 3.982924 53.176875 9.876105 -0.786276 -0.596757 33.211162 0.723650 0.000000 0.000000 0.000000 
0.004791 0.940069 0.249912 -4.888363 -7.448386 -2.096974 1.807765 0.432462 4.973688 -1.360322 0.158190 0.675912 5.496025 11.726265 -0.407902 0.000000 0.000000 0.000000 -1.431236 2.148080 -21.180014 5.610405 -0.404380 18.525326 -5.112687 -15.029141 10.369139 0.000000 0.000000 0.000000 -2.056421 -0.192341 13.125555 0.135805 -0.080834 3.018957 -2.235639 -1.099592 7.825351 4.824643 -1.730634 -21.493651 0.000000 0.000000 0.000000 -28.244291 -19.172279 11.549998 -31.053483 -20.569015 0.370087 1.484360 -24.667237 0.679336 0.000000 0.000000 0.000000 25.605184 12.396313 3.656971 53.412060 7.898866 -1.592469 -0.132369 34.695852 0.849862 0.000000 0.000000 0.000000 
-0.000517 0.937005 0.279002 -4.947231 -7.336329 -1.634808 1.814057 0.592055 6.820773 -0.875574 0.107524 0.076024 5.068702 10.632070 -1.883145 0.000000 0.000000 0.000000 -1.780986 2.154318 -21.726510 4.508681 -0.296401 11.229245 -3.843343 -13.055133 11.922945 0.000000 0.000000 0.000000 -1.684838 -0.227090 12.233183 0.147932 -0.086778 3.117575 -2.229885 -2.165874 7.703005 4.409156 -1.592008 -21.756539 0.000000 0.000000 0.000000 -28.619747 -18.576846 11.655473 -31.019554 -20.619822 0.264485 1.244002 -26.031022 0.804565 0.000000 0.000000 0.000000 25.636960 11.754388 2.857225 53.299647 6.167816 -2.218423 1.565471 35.304752 1.267192 0.000000 0.000000 0.000000 
-0.007238 0.932549 0.309849 -4.802195 -6.628983 -1.343101 1.504944 0.759143 8.559729 -0.156962 0.021657 -0.074200 4.682547 9.422855 -3.754672 0.000000 0.000000 0.000000 -2.440189 2.101932 -22.442743 3.593065 -0.228113 7.195957 -3.075126 -11.612127 11.982786 0.000000 0.000000 0.000000 -1.213823 -0.273744 11.351393 0.461224 -0.259301 3.815864 -2.401970 -2.806962 6.954190 4.297394 -1.632958 -20.734146 0.000000 0.000000 0.000000 -28.133991 -18.228812 11.400027 -31.865047 -20.905425 0.423292 0.105098 -26.564219 1.100098 0.000000 0.000000 0.000000 26.250535 11.416111 2.498865 52.328699 4.104900 -2.926504 1.749928 35.272257 1.285946 0.000000 0.000000 0.000000 
